Coordinates
version=1
nRows=22
nColumns=24
inDegrees=yes

Units are S.I. units (second, meters, Newtons, ...)
Angles are in degrees.

endheader
time	pelvis_tilt	pelvis_list	pelvis_rotation	pelvis_tx	pelvis_ty	pelvis_tz	hip_flexion_r	hip_adduction_r	hip_rotation_r	knee_angle_r	ankle_angle_r	subtalar_angle_r	mtp_angle_r	hip_flexion_l	hip_adduction_l	hip_rotation_l	knee_angle_l	ankle_angle_l	subtalar_angle_l	mtp_angle_l	lumbar_extension	lumbar_bending	lumbar_rotation
      1.10400000	     -1.47858225	      2.00429725	     -5.39957815	      0.16141061	      1.07329498	      0.28089875	     18.99705576	     -5.62266661	     -4.55859485	    -71.90753463	     -1.57115515	    -10.28067167	      3.39095087	     11.52526746	      3.28038188	      0.40415905	    -16.29013493	     10.10615073	      1.59859337	     -1.12714609	    -10.09464074	     -3.18512337	      1.06350377
      1.10816667	     -1.42992998	      1.88571411	     -5.37037016	      0.16619361	      1.07435345	      0.28068494	     19.45268149	     -5.47467517	     -4.69342486	    -71.64572891	     -1.29185406	    -10.13388015	      3.34107270	     10.95113342	      3.18478370	      0.37620869	    -15.81969820	     10.16617568	      1.75066964	     -1.11236767	    -10.22797404	     -3.04032222	      0.89973310
      1.11233333	     -1.41845240	      1.76059616	     -5.33237443	      0.17096175	      1.07529890	      0.28047534	     19.93589061	     -5.30907731	     -4.83228998	    -71.33059914	     -1.00107577	     -9.97053722	      3.31781333	     10.42876774	      3.07654223	      0.34185527	    -15.36881897	     10.17916404	      1.89963026	     -1.10197193	    -10.33202681	     -2.87279256	      0.76680286
      1.11650000	     -1.38197146	      1.64312636	     -5.28271485	      0.17572206	      1.07623668	      0.28024199	     20.37863782	     -5.16082852	     -4.98272129	    -70.96417618	     -0.69606783	     -9.71548804	      3.29852808	      9.87964076	      2.98117253	      0.32229026	    -14.91447429	     10.22902452	      2.06474347	     -1.08715122	    -10.46088153	     -2.71892214	      0.58229547
      1.12066667	     -1.34539650	      1.53652084	     -5.22375629	      0.18049133	      1.07710983	      0.28000921	     20.80873754	     -5.02678591	     -5.14309310	    -70.54927232	     -0.38271337	     -9.41515326	      3.28224857	      9.33506380	      2.89634303	      0.29679306	    -14.46633763	     10.29313471	      2.23810793	     -1.06650641	    -10.57224783	     -2.57539229	      0.36899982
      1.12483333	     -1.29502065	      1.42520866	     -5.15970009	      0.18524171	      1.07797801	      0.27977064	     21.20823463	     -4.88761842	     -5.30738641	    -70.07585824	     -0.06520755	     -9.08256549	      3.27768981	      8.77809255	      2.80725842	      0.28028605	    -14.01908902	     10.33525182	      2.40710903	     -1.04540252	    -10.71544279	     -2.42595220	      0.17739018
      1.12900000	     -1.28740616	      1.30636878	     -5.08506801	      0.19000405	      1.07871800	      0.27953201	     21.63773240	     -4.73265082	     -5.47750750	    -69.54939608	      0.24778666	     -8.72545202	      3.28531625	      8.27775085	      2.70512675	      0.27359573	    -13.59586999	     10.36756722	      2.57203238	     -1.02864073	    -10.81610172	     -2.26391476	      0.02022401
      1.13316667	     -1.23328809	      1.22189665	     -5.00660727	      0.19475554	      1.07946002	      0.27928526	     22.01186407	     -4.62663640	     -5.64968410	    -68.98861328	      0.58997368	     -8.30146310	      3.30300770	      7.72611548	      2.64496422	      0.25999407	    -13.15767139	     10.43222987	      2.74364672	     -1.00469686	    -10.95351227	     -2.13795084	     -0.20080405
      1.13733333	     -1.19374715	      1.12341027	     -4.92027128	      0.19951426	      1.08012509	      0.27903566	     22.38368297	     -4.50276859	     -5.83049874	    -68.37273650	      0.91479441	     -7.88777944	      3.32978404	      7.19807871	      2.56686253	      0.25813452	    -12.74178811	     10.49381115	      2.91831039	     -0.97830466	    -11.07941948	     -1.99550409	     -0.40564635
      1.14150000	     -1.15894811	      1.03982114	     -4.82918760	      0.20427821	      1.08074097	      0.27879683	     22.74860707	     -4.39238875	     -6.00891572	    -67.70981551	      1.24168235	     -7.45041916	      3.36578204	      6.67794939	      2.50333002	      0.26032130	    -12.32558551	     10.54718306	      3.08358719	     -0.95172064	    -11.19903374	     -1.87035382	     -0.60539027
      1.14566667	     -1.12893574	      0.95799570	     -4.73521500	      0.20903864	      1.08126758	      0.27856045	     23.10707361	     -4.28255705	     -6.18803171	    -67.00471391	      1.56510928	     -7.00425758	      3.40970229	      6.17027484	      2.43978448	      0.26340658	    -11.92366967	     10.61278034	      3.25156649	     -0.92384683	    -11.31335852	     -1.74524355	     -0.80316995
      1.14983333	     -1.09796313	      0.88901030	     -4.63785050	      0.21379866	      1.08173601	      0.27833370	     23.45416711	     -4.18507659	     -6.36447566	    -66.25745402	      1.88510335	     -6.55815717	      3.46043893	      5.66685930	      2.38861847	      0.27053746	    -11.52921163	     10.67908985	      3.41663799	     -0.89551200	    -11.42746701	     -1.63651608	     -1.00043848
      1.15400000	     -1.07235248	      0.82144535	     -4.53772169	      0.21857568	      1.08215065	      0.27811446	     23.79005133	     -4.08597940	     -6.53960913	    -65.46033517	      2.19170269	     -6.12200773	      3.52093200	      5.17190561	      2.33714627	      0.28099140	    -11.14188679	     10.75010839	      3.58314948	     -0.86431526	    -11.53314295	     -1.52772302	     -1.20560997
      1.15816667	     -1.05115850	      0.77316329	     -4.43880442	      0.22335384	      1.08247866	      0.27790526	     24.12430422	     -4.00666544	     -6.70837661	    -64.62937070	      2.49443249	     -5.68702784	      3.58226629	      4.68747011	      2.30516134	      0.28982373	    -10.76304060	     10.82767426	      3.73658737	     -0.83513706	    -11.62693026	     -1.43985629	     -1.39102443
      1.16233333	     -1.05064353	      0.71068148	     -4.33540338	      0.22814576	      1.08274570	      0.27771512	     24.45749072	     -3.90266813	     -6.87602410	    -63.73592176	      2.77110493	     -5.28807487	      3.63208813	      4.23121497	      2.25287215	      0.30335089	    -10.39960518	     10.88278604	      3.88419547	     -0.81398218	    -11.70139236	     -1.33985456	     -1.54080301
      1.16650000	     -1.02168308	      0.68733169	     -4.23787892	      0.23293310	      1.08295430	      0.27752954	     24.76237783	     -3.84651429	     -7.03076053	    -62.83042898	      3.06161956	     -4.87030914	      3.71055103	      3.74311952	      2.24609665	      0.31986700	    -10.02839688	     10.98966173	      4.04538139	     -0.77948032	    -11.80615726	     -1.27882845	     -1.77527690
      1.17066667	     -1.03034896	      0.65638742	     -4.13767549	      0.23774750	      1.08306317	      0.27736884	     25.08665520	     -3.77109784	     -7.18056692	    -61.86856129	      3.32272551	     -4.49360063	      3.79156332	      3.30353605	      2.22474403	      0.33819946	     -9.67887245	     11.07851228	      4.19312475	     -0.74513106	    -11.86207536	     -1.21121206	     -1.96276559
      1.17483333	     -1.04896362	      0.65126660	     -4.04393356	      0.24256178	      1.08307631	      0.27722791	     25.41741140	     -3.71946059	     -7.31436191	    -60.87895612	      3.57648438	     -4.13161088	      3.87103578	      2.87842231	      2.22981255	      0.35390232	     -9.33345482	     11.17132029	      4.32724708	     -0.71298442	    -11.90214104	     -1.17476307	     -2.13567794
      1.17900000	     -1.06502204	      0.64380278	     -3.95254248	      0.24738858	      1.08305037	      0.27710425	     25.72666374	     -3.65955695	     -7.44061053	    -59.83978537	      3.81490704	     -3.79552190	      3.95583445	      2.45171583	      2.23109092	      0.36980259	     -8.99366538	     11.26700629	      4.46312436	     -0.67950975	    -11.94697306	     -1.13753764	     -2.31081960
      1.18316667	     -1.09158063	      0.63944985	     -3.86650839	      0.25222438	      1.08295960	      0.27701260	     26.03129300	     -3.59362234	     -7.55027656	    -58.75364515	      4.02997729	     -3.50320299	      4.01019435	      2.04134686	      2.23183227	      0.38214222	     -8.66624315	     11.34285842	      4.58945691	     -0.65908250	    -11.97492623	     -1.10768130	     -2.42811437
      1.18733333	     -1.11716437	      0.65712378	     -3.78534644	      0.25707074	      1.08279664	      0.27693077	     26.32718608	     -3.55074598	     -7.64909919	    -57.64137124	      4.24931316	     -3.19934944	      4.07128862	      1.62884869	      2.25698511	      0.39551000	     -8.33591182	     11.44371163	      4.71406499	     -0.63631738	    -12.00575367	     -1.10042023	     -2.57821320
      1.19150000	     -1.14532515	      0.67538174	     -3.70775425	      0.26192843	      1.08258853	      0.27686864	     26.60738317	     -3.50134100	     -7.73539033	    -56.47957786	      4.44812884	     -2.92899084	      4.13394344	      1.22136476	      2.28119286	      0.40794318	     -8.01407372	     11.54950457	      4.83365996	     -0.61322959	    -12.03021311	     -1.09541586	     -2.72629540
